<?xml version="1.0" encoding="utf-8"?>
<!-- Generator: Adobe Illustrator 16.0.0, SVG Export Plug-In . SVG Version: 6.00 Build 0)  -->
<!DOCTYPE svg PUBLIC "-//W3C//DTD SVG 1.1//EN" "http://www.w3.org/Graphics/SVG/1.1/DTD/svg11.dtd">
<svg version="1.1" id="OBJECTS" xmlns="http://www.w3.org/2000/svg" xmlns:xlink="http://www.w3.org/1999/xlink" x="0px" y="0px"
	 width="103.495px" height="145.333px" viewBox="0 0 103.495 145.333" enable-background="new 0 0 103.495 145.333"
	 xml:space="preserve">
<g>
	<g>
		<path fill="#424242" d="M84.814,25.509H17.605c-5.946,0-10.765,4.819-10.765,10.765v93.147c0,5.945,4.819,10.766,10.765,10.766
			h67.208c5.945,0,10.766-4.82,10.766-10.766V36.273C95.58,30.328,90.759,25.509,84.814,25.509z"/>
		<rect x="11.846" y="40.753" fill="#00ACC1" width="78.728" height="84.188"/>
		<circle fill="#BDBDBD" cx="51.21" cy="132.564" r="4.55"/>
		<polygon fill="#E0E0E0" points="82.154,112.484 11.846,124.941 11.846,40.753 82.154,28.296 		"/>
		<polyline fill="#EEEEEE" points="11.846,40.753 75.784,15.554 75.784,99.742 11.846,124.941 		"/>
		<polygon fill="#26C6DA" points="63.724,87.854 11.846,124.941 11.846,40.753 63.724,3.665 		"/>
	</g>
</g>
<g>
	<path fill="#E2E2E2" d="M28.033,45.146c0,0-1.88,3.191-2.409,5.711c-0.361,0.802-3.592,7.333-3.592,7.333l-0.06-0.27
		c0,0,0.002-3.931,0.832-5.293c0.831-1.362,0.958-1.875,0.958-1.875l2.751-4.313l1.223-1.294H28.033z"/>
	<path fill="#E2E2E2" d="M32.513,55.7c0,0-2.721,1.532-5.611,0.417c-2.911,4.354-2.911,4.354-2.911,4.354l0.144,0.178
		c0,0,2.356,0.817,4.806-0.54c1.469-1.388,3.7-4.41,3.7-4.41H32.513z"/>
	<path fill="#E2E2E2" d="M21.824,65.722c0,0,1.104,1.656,3.272,2.719c2.167,1.063,5.939,2.219,10.003,2.25
		c-1.563,2.594-2.459,3.607-2.459,3.607s-3.445,2.018-6.315,1.643c-2.868-0.375-4.688-1.25-5.105-5.063
		C21.317,67.357,21.824,65.722,21.824,65.722z"/>
	<path fill="#E2E2E2" d="M25.701,77.534c0,0,1.583,2.719,5.501,3.844c3.918,1.125,5.085,1.563,9.003,1.438
		c-1.188,2.375-1.146,2.656-1.146,2.656s-3.313,1.719-5.96,1.063c-2.563,0.594-3.167,0.688-3.167,0.688s-1.878-0.653-3.084-2.219
		c-1.206-1.565-1.334-5.281-1.334-5.281l0.104-2.188H25.701z"/>
	<path fill="#E2E2E2" d="M38.746,87.472c0,0-3.021-0.031-4.584-3.188c-1.563-3.156,0.375,6.344,0.375,6.344l1.952,0.771
		c0,0,2.239,0.458,4.801-0.281C43.852,90.378,38.746,87.472,38.746,87.472z"/>
	<path fill="#E2E2E2" d="M46.769,88.565c0,0,2.434-2,3.063-3.406C49.5,85.222,49.5,85.222,49.5,85.222s-2.208,2.813-5.678,2.547
		c0.051,0.797,1.072,0.953,1.072,0.953L46.769,88.565z"/>
	<path fill="#C1C1C1" d="M34.162,84.753l1.896,1.75c0,0-1.667,1.031-2.188,0.875S34.162,84.753,34.162,84.753z"/>
	<path fill="#C1C1C1" d="M45.165,88.628c0,0,1.25-0.406,1.479-1.234c-0.479-0.047-1.188,0.547-3.146,0.328
		S45.165,88.628,45.165,88.628z"/>
	<path fill="#FFFFFF" d="M32.056,40.753h-0.875c0,0-5.627,3.563-8.378,11.875c2-3.375,5.668-8.813,8.669-10.688
		C31.848,41.315,32.056,40.753,32.056,40.753z"/>
	<path fill="#FFFFFF" d="M31.848,47.128l-2.626-0.438c0,0-5.331,4.291-8.162,13.956c-0.088,0.301-0.25,8.576,0.16,10.231
		c0.708-4.875-0.167-6.063,6.668-16.25c1.459-1.875,3.293-3.75,3.293-3.75L31.848,47.128z"/>
	<path fill="#FFFFFF" d="M46.144,50.69l-3.668-2.25h-0.583c0,0-10.004,4.125-17.339,19.063c-1.208,2.625-2.001,7-1.75,9.625
		c0.417,1.625,1.625,5.125,4.043,7.875c-0.542-1.188-2.334-5.063,2-13.75s13.004-14.875,15.088-15.625
		C45.019,53.69,46.144,50.69,46.144,50.69z"/>
	<path fill="#FFFFFF" d="M47.381,64.482l-3.558-1.667h-1.166c0,0-8.614,5.584-12.782,17.667c-0.779,2.833-0.556,6.666,0.667,8.416
		c1.222,1.75,5.946,2.5,5.946,2.5s-5.001-3.167-0.277-11.5c4.723-8.333,9.058-10,9.058-10L47.381,64.482z"/>
	<path fill="#FFFFFF" d="M48.214,77.106l-2.5-0.874h-1.001c0,0-5.732,4.833-6.313,11.083c-0.578,6.25,6.201,2.917,6.201,2.917
		l2.167-1.667c0,0-2.555,0.25-3.055-1c-0.501-1.25,0.389-2.917,1.499-4.25c1.112-1.333,1.723-1.75,1.723-1.75L48.214,77.106z"/>
</g>
</svg>
